<svg width="225" height="197" viewBox="0 0 225 197" fill="none" xmlns="http://www.w3.org/2000/svg">
<path d="M4.08033 14.2513C4.08033 14.2513 151.552 -40.6195 206.691 64.9742C236.42 121.905 221.004 168.491 221.004 168.491C221.004 168.491 108.684 227.493 44.8186 175.735C-19.0468 123.976 4.08033 14.2513 4.08033 14.2513Z" fill="#E0ECF8"/>
<path d="M64.3228 97.8525H64.0317L58.3511 147H36.3611L25 54.7639H40.5817L49.0274 127.492H49.3185L56.8958 54.7639H72.332L80.1955 128.021H80.4866L88.6413 54.7639H102.622L91.2609 146.995H69.9987L64.3228 97.8525ZM152.879 80.1939H152.588V146.995H138.17V54.7639H158.269L174.437 109.971H174.728V54.7639H189V146.995H172.54L152.879 80.1939ZM110.641 72.0777V146.995H126.663V72.0777H110.641ZM119.579 47.5817C120.312 47.1287 120.655 46.2368 120.42 45.4062C120.185 44.5757 119.429 44 118.565 44C117.706 44 116.946 44.5757 116.711 45.4062C116.476 46.2368 116.819 47.1287 117.552 47.5817L114.786 53.1689C114.58 53.5889 114.194 53.8909 113.739 53.9947C113.284 54.0985 112.81 53.9852 112.443 53.6927L108.12 50.2338C108.66 49.5117 108.632 48.5161 108.058 47.8224C107.481 47.1287 106.509 46.9258 105.711 47.3269C104.909 47.728 104.491 48.634 104.693 49.5117C104.899 50.3894 105.679 51.0076 106.575 51.0076L108.833 63.1683C109.101 64.6454 110.377 65.7166 111.871 65.7166H125.246C126.739 65.7166 128.021 64.6407 128.283 63.1683L130.49 50.9793H130.527C131.307 50.9793 132.016 50.5074 132.312 49.7807C132.607 49.054 132.443 48.2187 131.889 47.6619C131.335 47.1098 130.504 46.9446 129.781 47.2466C129.058 47.5487 128.589 48.2612 128.593 49.0446C128.589 49.4646 128.729 49.8704 128.982 50.2054L124.659 53.6644C124.293 53.957 123.819 54.0703 123.363 53.9664C122.908 53.8626 122.523 53.5606 122.316 53.1406L119.579 47.5817Z" fill="url(#paint0_linear_168_9)"/>
<defs>
<linearGradient id="paint0_linear_168_9" x1="17.8726" y1="21.8621" x2="128.799" y2="155.005" gradientUnits="userSpaceOnUse">
<stop offset="0.0809" stop-color="#0256A7"/>
<stop offset="0.1533" stop-color="#1857A4"/>
<stop offset="0.2408" stop-color="#33599E"/>
<stop offset="0.3361" stop-color="#505C95"/>
<stop offset="0.437" stop-color="#6F6288"/>
<stop offset="0.5423" stop-color="#906A76"/>
<stop offset="0.6514" stop-color="#B9755C"/>
<stop offset="0.7614" stop-color="#E7832F"/>
<stop offset="0.7885" stop-color="#F6871F"/>
</linearGradient>
</defs>
</svg>
