   <svg
          viewBox="0 0 120 81"
          fill="none"
          xmlns="http://www.w3.org/2000/svg"
        >
          <path
            d="M80.3592 34.6413C89.8494 34.6413 97.5427 26.9986 97.5427 17.5707C97.5427 8.1428 89.8494 0.5 80.3592 0.5C70.869 0.5 63.1757 8.1428 63.1757 17.5707C63.1757 26.9986 70.869 34.6413 80.3592 34.6413Z"
            fill="#FACC37"
          >
          </path>
          <path
            d="M24.4432 47.2309H0V42.5091L16.2935 14.1782H22.4027L6.10929 42.5091H24.4432V24.9692H29.8744V54.6474H24.4432V47.2248V47.2309Z"
            fill="#0A5366"
          >
          </path>
          <path
            d="M42.099 18.8939H36.6678V14.1721H47.5302V54.6473H42.099V18.8939Z"
            fill="#0A5366"
          >
          </path>
          <path
            d="M76.0482 18.8939H54.3175V14.1721H84.1919L64.5017 54.6473H58.3924L76.0482 18.8939Z"
            fill="#0A5366"
          >
          </path>
          <path
            d="M83.4714 14.5994L117.923 60.0369"
            stroke="#0A5366"
            stroke-width="0.800497"
            stroke-miterlimit="10"
          >
          </path>
          <path
            d="M79.784 17.9917L106.958 60.6924"
            stroke="#0A5366"
            stroke-width="0.800497"
            stroke-miterlimit="10"
          >
          </path>
          <path
            d="M77.9494 22.4006L96.2288 60.5059"
            stroke="#0A5366"
            stroke-width="0.800497"
            stroke-miterlimit="10"
          >
          </path>
          <path
            d="M76.4962 27.7903L84.2221 63.1226"
            stroke="#0A5366"
            stroke-width="0.800497"
            stroke-miterlimit="10"
          >
          </path>
          <path
            d="M119.516 61.5225H24.431"
            stroke="#0A5366"
            stroke-width="4.16622"
            stroke-miterlimit="10"
          >
          </path>
          <path
            d="M26.4897 80.5002V62.3528"
            stroke="#0A5366"
            stroke-width="4.16622"
            stroke-miterlimit="10"
          >
          </path>
          <path
            d="M42.6804 79.4051H41.8933L39.211 76.4878H37.0918V79.4051H36.4924V71.6938H39.9073C41.5905 71.6938 42.4443 72.8968 42.4564 74.0938C42.4685 75.351 41.6329 76.4517 39.9376 76.4517L42.6743 79.4051H42.6804ZM37.0918 75.9224H39.8407C41.1909 75.9224 41.7903 75.1645 41.8024 74.0818C41.8145 73.1796 41.1909 72.2412 39.9073 72.2412H37.0918V75.9224Z"
            fill="#1BB2B9"
          >
          </path>
          <path
            d="M43.3706 79.7058H41.76L39.0777 76.7886H37.3945V79.7058H36.1896V71.3931H39.9072C41.766 71.3931 42.7469 72.7525 42.759 74.0938C42.7651 74.8337 42.5047 75.5013 42.0325 75.9825C41.6571 76.3555 41.1606 76.6021 40.5793 76.7044L43.3706 79.7119V79.7058ZM41.6268 72.6923C41.9417 73.0713 42.1112 73.5705 42.1051 74.0878C42.0991 74.7374 41.8932 75.2607 41.5238 75.6277C41.5481 75.6036 41.5723 75.5795 41.5965 75.5555C41.9598 75.1946 42.1536 74.6773 42.1475 74.0998C42.1475 73.6066 41.9719 73.0893 41.6207 72.6983L41.6268 72.6923ZM37.3945 75.6216H39.8406C40.9305 75.6216 41.4875 75.1043 41.4996 74.0818C41.4996 73.6607 41.3483 73.2577 41.0697 72.981C40.7852 72.6983 40.3856 72.548 39.9012 72.548H37.3884V75.6277L37.3945 75.6216Z"
            fill="#1BB2B9"
          >
          </path>
          <path
            d="M47.8875 75.2548H52.4347V75.7961H47.8875V78.8337H52.7919V79.4051H47.3002V71.6938H52.6587V72.2532H47.8875V75.2487V75.2548Z"
            fill="#1BB2B9"
          >
          </path>
          <path
            d="M53.0946 79.7058H46.9974V71.3931H52.9614V72.56H48.1902V74.954H52.7374V76.0968H48.1902V78.5329H53.0946V79.7058Z"
            fill="#1BB2B9"
          >
          </path>
          <path
            d="M64.1447 78.3407C63.3697 79.1106 62.3343 79.4956 61.3171 79.4956C58.7014 79.4956 57.333 77.679 57.327 75.5978C57.3028 73.5347 58.659 71.6099 61.3171 71.6099C62.3403 71.6099 63.3697 71.9948 64.1447 72.7647L63.7329 73.1196C63.0669 72.458 62.189 72.1392 61.3171 72.1392C59.0526 72.1392 57.89 73.7272 57.9022 75.5738C57.9264 77.3783 59.0768 78.9422 61.3171 78.9422C62.195 78.9422 63.079 78.6114 63.7451 77.9617L64.1447 78.3347V78.3407Z"
            fill="#1BB2B9"
          >
          </path>
          <path
            d="M61.317 79.7963C58.3683 79.7963 57.0302 77.685 57.0242 75.5978C57.0121 74.3827 57.4359 73.282 58.217 72.494C58.992 71.7181 60.0637 71.3091 61.317 71.3091C62.4735 71.3091 63.5512 71.7482 64.3565 72.5542L64.5866 72.7828L63.7147 73.5286L63.5149 73.3301C62.9336 72.7527 62.1526 72.4399 61.3109 72.4399C60.3846 72.4399 59.6096 72.7286 59.0586 73.276C58.4955 73.8354 58.1928 74.6534 58.1988 75.5737C58.217 76.9873 59.0404 78.6474 61.3109 78.6474C62.1405 78.6474 62.9458 78.3226 63.527 77.7512L63.7329 77.5467L64.5684 78.3346L64.3505 78.5512C63.5452 79.3512 62.4614 79.7963 61.3109 79.7963H61.317Z"
            fill="#1BB2B9"
          >
          </path>
          <path
            d="M76.6599 75.5614C76.6478 77.5885 75.352 79.5374 72.7424 79.5374C70.1328 79.5374 68.825 77.5765 68.825 75.5374C68.825 73.4983 70.1207 71.5735 72.7424 71.5735C75.3641 71.5735 76.6659 73.4802 76.6599 75.5614ZM69.4183 75.5494C69.4304 77.2878 70.5384 78.984 72.7424 78.984C74.9463 78.984 76.0786 77.2878 76.0786 75.5494C76.0786 73.8111 74.9706 72.1208 72.7424 72.1208C70.5142 72.1208 69.4062 73.7269 69.4183 75.5494Z"
            fill="#1BB2B9"
          >
          </path>
          <path
            d="M72.7484 79.8384C69.8482 79.8384 68.5283 77.6068 68.5283 75.5376C68.5283 73.4684 69.83 71.2729 72.7484 71.2729C73.9654 71.2729 75.0069 71.6699 75.7637 72.4218C76.5448 73.2038 76.9747 74.3165 76.9686 75.5617C76.9565 77.6188 75.6305 79.8384 72.7484 79.8384ZM69.721 75.5496C69.7331 77.0594 70.6837 78.6895 72.7484 78.6895C74.8131 78.6895 75.7819 77.0654 75.7819 75.5496C75.7819 74.0338 74.8434 72.4218 72.7484 72.4218C71.8644 72.4218 71.1136 72.6985 70.5869 73.2278C70.0238 73.7872 69.721 74.6113 69.7271 75.5436L69.721 75.5496Z"
            fill="#1BB2B9"
          >
          </path>
          <path
            d="M87.7885 71.6938L84.5916 79.4292H83.9498L80.7529 71.6938H81.3947L84.2646 78.7435L87.1346 71.6938H87.7764H87.7885Z"
            fill="#1BB2B9"
          >
          </path>
          <path
            d="M84.7975 79.7299H83.75L80.3109 71.3931H81.6066L84.2768 77.9435L86.9409 71.3931H88.2427L84.7975 79.7299Z"
            fill="#1BB2B9"
          >
          </path>
          <path
            d="M93.0321 75.2548H97.5792V75.7961H93.0321V78.8337H97.9365V79.4051H92.4448V71.6938H97.8032V72.2532H93.0321V75.2487V75.2548Z"
            fill="#1BB2B9"
          >
          </path>
          <path
            d="M98.2331 79.7058H92.142V71.3931H98.0999V72.56H93.3347V74.954H97.8819V76.0968H93.3347V78.5329H98.2331V79.7058Z"
            fill="#1BB2B9"
          >
          </path>
          <path
            d="M109.077 79.4051H108.29L105.608 76.4878H103.489V79.4051H102.889V71.6938H106.304C107.987 71.6938 108.841 72.8968 108.853 74.0938C108.865 75.351 108.03 76.4517 106.334 76.4517L109.071 79.4051H109.077ZM103.489 75.9224H106.238C107.588 75.9224 108.187 75.1645 108.199 74.0818C108.211 73.1796 107.588 72.2412 106.304 72.2412H103.489V75.9224Z"
            fill="#1BB2B9"
          >
          </path>
          <path
            d="M109.767 79.7058H108.157L105.475 76.7886H103.791V79.7058H102.586V71.3931H106.304C108.163 71.3931 109.144 72.7525 109.156 74.0938C109.162 74.8337 108.902 75.5013 108.429 75.9825C108.054 76.3555 107.563 76.6021 106.976 76.7044L109.767 79.7119V79.7058ZM108.018 72.6923C108.332 73.0713 108.508 73.5705 108.502 74.0878C108.496 74.7374 108.29 75.2607 107.921 75.6277C107.945 75.6036 107.975 75.5795 107.999 75.5555C108.363 75.1946 108.556 74.6773 108.55 74.0998C108.55 73.6066 108.375 73.0893 108.018 72.6923ZM103.791 75.6216H106.237C107.327 75.6216 107.884 75.1043 107.896 74.0818C107.896 73.6607 107.745 73.2577 107.467 72.981C107.182 72.6983 106.782 72.548 106.304 72.548H103.791V75.6277V75.6216Z"
            fill="#1BB2B9"
          >
          </path>
          <path
            d="M116.058 76.3194L113.031 71.7059V71.6938H113.727L116.355 75.748L118.995 71.6938H119.691V71.7059L116.652 76.3194V79.4051H116.052V76.3194H116.058Z"
            fill="#1BB2B9"
          >
          </path>
          <path
            d="M116.961 79.7058H115.756V76.4096L112.728 71.7961V71.4051L113.891 71.3931L116.355 75.1946L118.831 71.3931H120V71.784L119.946 71.8683L116.961 76.4096V79.7058Z"
            fill="#1BB2B9"
          >
          </path>
        </svg>